<svg width="40" height="40" viewBox="0 0 40 40" fill="none" xmlns="http://www.w3.org/2000/svg">
<path d="M0.5 20C0.5 9.23045 9.23045 0.5 20 0.5C30.7696 0.5 39.5 9.23045 39.5 20C39.5 30.7696 30.7696 39.5 20 39.5C9.23045 39.5 0.5 30.7696 0.5 20Z" stroke="#273345"/>
<g clip-path="url(#clip0_4245_35590)">
<path d="M30.7368 33.2833L34.2842 9.54688L10.5478 5.99945L7.00037 29.7358L30.7368 33.2833Z" fill="#B4BCFE"/>
<path d="M15.2869 45.3112L36.3115 25.6367L16.6371 4.61214L-4.3875 24.2866L15.2869 45.3112Z" fill="#28AE8E"/>
<path d="M-10.9998 12.8495L-4.15039 38.7734L21.7735 31.9241L14.9241 6.00016L-10.9998 12.8495Z" fill="#02C7F2"/>
</g>
<defs>
<clipPath id="clip0_4245_35590">
<path d="M8 20C8 13.3726 13.3726 8 20 8C26.6274 8 32 13.3726 32 20C32 26.6274 26.6274 32 20 32C13.3726 32 8 26.6274 8 20Z" fill="white"/>
</clipPath>
</defs>
</svg>
