<svg xmlns="http://www.w3.org/2000/svg" width="12" height="12" viewBox="0 0 12 12" fill="none">
  <path d="M2.67532 8.47817C2.61974 8.53376 2.57564 8.59974 2.54556 8.67236C2.51548 8.74499 2.5 8.82282 2.5 8.90143C2.5 8.98003 2.51548 9.05787 2.54556 9.13049C2.57564 9.20311 2.61974 9.2691 2.67532 9.32468C2.78757 9.43694 2.93982 9.5 3.09857 9.5C3.17718 9.5 3.25501 9.48452 3.32764 9.45444C3.40026 9.42436 3.46624 9.38027 3.52183 9.32468L2.67532 8.47817ZM3.52183 9.32468L9.5 3.34651L8.65349 2.5L2.67532 8.47817L3.52183 9.32468Z" fill="white"/>
  <path d="M3 3H9V9" stroke="white" stroke-linecap="round" stroke-linejoin="round"/>
</svg>