<svg xmlns="http://www.w3.org/2000/svg" width="17" height="16" viewBox="0 0 17 16" fill="none">
  <g clip-path="url(#clip0_4484_39422)">
    <path d="M7.64252 4.44899H6.38752V3.19399C6.38752 3.03486 6.32431 2.88225 6.21178 2.76973C6.09926 2.65721 5.94665 2.59399 5.78752 2.59399C5.62839 2.59399 5.47578 2.65721 5.36326 2.76973C5.25073 2.88225 5.18752 3.03486 5.18752 3.19399V4.44899H3.93252C3.77339 4.44899 3.62078 4.51221 3.50826 4.62473C3.39573 4.73725 3.33252 4.88986 3.33252 5.04899C3.33252 5.20812 3.39573 5.36074 3.50826 5.47326C3.62078 5.58578 3.77339 5.64899 3.93252 5.64899H5.18752V6.90499C5.18752 7.06412 5.25073 7.21674 5.36326 7.32926C5.47578 7.44178 5.62839 7.50499 5.78752 7.50499C5.94665 7.50499 6.09926 7.44178 6.21178 7.32926C6.32431 7.21674 6.38752 7.06412 6.38752 6.90499V5.64899H7.64252C7.80165 5.64899 7.95426 5.58578 8.06678 5.47326C8.17931 5.36074 8.24252 5.20812 8.24252 5.04899C8.24252 4.88986 8.17931 4.73725 8.06678 4.62473C7.95426 4.51221 7.80165 4.44899 7.64252 4.44899ZM13.5145 4.34899H10.0655C9.90639 4.34899 9.75378 4.41221 9.64126 4.52473C9.52873 4.63725 9.46552 4.78986 9.46552 4.94899C9.46552 5.10812 9.52873 5.26074 9.64126 5.37326C9.75378 5.48578 9.90639 5.54899 10.0655 5.54899H13.5145C13.6736 5.54899 13.8263 5.48578 13.9388 5.37326C14.0513 5.26074 14.1145 5.10812 14.1145 4.94899C14.1145 4.78986 14.0513 4.63725 13.9388 4.52473C13.8263 4.41221 13.6736 4.34899 13.5145 4.34899ZM13.5145 9.02899H10.0655C9.90639 9.02899 9.75378 9.09221 9.64126 9.20473C9.52873 9.31725 9.46552 9.46986 9.46552 9.62899C9.46552 9.78812 9.52873 9.94074 9.64126 10.0533C9.75378 10.1658 9.90639 10.229 10.0655 10.229H13.5145C13.6736 10.229 13.8263 10.1658 13.9388 10.0533C14.0513 9.94074 14.1145 9.78812 14.1145 9.62899C14.1145 9.46986 14.0513 9.31725 13.9388 9.20473C13.8263 9.09221 13.6736 9.02899 13.5145 9.02899ZM13.5145 11.3H10.0655C9.90639 11.3 9.75378 11.3632 9.64126 11.4757C9.52873 11.5883 9.46552 11.7409 9.46552 11.9C9.46552 12.0591 9.52873 12.2117 9.64126 12.3243C9.75378 12.4368 9.90639 12.5 10.0655 12.5H13.5145C13.6736 12.5 13.8263 12.4368 13.9388 12.3243C14.0513 12.2117 14.1145 12.0591 14.1145 11.9C14.1145 11.7409 14.0513 11.5883 13.9388 11.4757C13.8263 11.3632 13.6736 11.3 13.5145 11.3ZM7.52352 9.26099C7.4678 9.20521 7.40162 9.16095 7.32878 9.13076C7.25594 9.10056 7.17787 9.08502 7.09902 9.08502C7.02017 9.08502 6.94209 9.10056 6.86926 9.13076C6.79642 9.16095 6.73024 9.20521 6.67452 9.26099L5.78752 10.149L4.90052 9.26099C4.84477 9.20525 4.77859 9.16103 4.70576 9.13086C4.63292 9.10069 4.55486 9.08516 4.47602 9.08516C4.39718 9.08516 4.31912 9.10069 4.24628 9.13086C4.17345 9.16103 4.10727 9.20525 4.05152 9.26099C3.99577 9.31674 3.95155 9.38292 3.92138 9.45576C3.89121 9.52859 3.87569 9.60666 3.87569 9.68549C3.87569 9.76433 3.89121 9.8424 3.92138 9.91523C3.95155 9.98807 3.99577 10.0542 4.05152 10.11L4.93952 11L4.05152 11.888C3.99509 11.9436 3.95023 12.0098 3.91952 12.0828C3.88881 12.1558 3.87285 12.2342 3.87258 12.3134C3.8723 12.3926 3.88771 12.471 3.91792 12.5443C3.94812 12.6175 3.99252 12.684 4.04856 12.74C4.1046 12.7959 4.17117 12.8403 4.24442 12.8704C4.31767 12.9005 4.39616 12.9158 4.47537 12.9154C4.55457 12.9151 4.63291 12.899 4.70588 12.8682C4.77885 12.8374 4.845 12.7925 4.90052 12.736L5.78752 11.849L6.67452 12.736C6.78728 12.8471 6.93937 12.9091 7.09766 12.9085C7.25594 12.908 7.4076 12.8449 7.51959 12.7331C7.63158 12.6212 7.69483 12.4696 7.69557 12.3113C7.69631 12.1531 7.63447 12.0009 7.52352 11.888L6.63652 11L7.52352 10.113C7.57976 10.0572 7.62439 9.99086 7.65485 9.91774C7.68532 9.84462 7.701 9.7662 7.701 9.68699C7.701 9.60779 7.68532 9.52936 7.65485 9.45625C7.62439 9.38313 7.57976 9.31677 7.52352 9.26099Z" fill="#59F6FD"/>
    <rect x="1.31436" y="0.6" width="14.8" height="14.8" rx="2.4" stroke="#59F6FD" stroke-width="1.2"/>
  </g>
  <defs>
    <clipPath id="clip0_4484_39422">
      <rect width="16" height="16" fill="white" transform="translate(0.714355)"/>
    </clipPath>
  </defs>
</svg>