<svg width="13" height="12" viewBox="0 0 13 12" fill="none" xmlns="http://www.w3.org/2000/svg">
<path d="M2.70036 8.8322C2.63684 8.89572 2.58645 8.97113 2.55207 9.05413C2.51769 9.13713 2.5 9.22608 2.5 9.31592C2.5 9.40575 2.51769 9.49471 2.55207 9.5777C2.58645 9.6607 2.63684 9.73611 2.70036 9.79964C2.82865 9.92793 3.00265 10 3.18408 10C3.27392 10 3.36287 9.98231 3.44587 9.94793C3.52887 9.91355 3.60428 9.86316 3.6678 9.79964L2.70036 8.8322ZM3.6678 9.79964L10.5 2.96744L9.53256 2L2.70036 8.8322L3.6678 9.79964Z" fill="#59F6FD"/>
<path d="M3.18359 2.4837H10.0158V9.3159" stroke="#59F6FD" stroke-linecap="round" stroke-linejoin="round"/>
</svg>
