<svg width="12" height="12" viewBox="0 0 12 12" fill="none" xmlns="http://www.w3.org/2000/svg">
<path d="M2.20036 8.8322C2.13684 8.89572 2.08645 8.97113 2.05207 9.05413C2.01769 9.13713 2 9.22608 2 9.31592C2 9.40575 2.01769 9.49471 2.05207 9.5777C2.08645 9.6607 2.13684 9.73611 2.20036 9.79964C2.32865 9.92793 2.50265 10 2.68408 10C2.77392 10 2.86287 9.98231 2.94587 9.94793C3.02887 9.91355 3.10428 9.86316 3.1678 9.79964L2.20036 8.8322ZM3.1678 9.79964L10 2.96744L9.03256 2L2.20036 8.8322L3.1678 9.79964Z" fill="#59F6FD"/>
<path d="M2.68384 2.4837H9.51604V9.3159" stroke="#59F6FD" stroke-linecap="round" stroke-linejoin="round"/>
</svg>
