<svg width="40" height="40" viewBox="0 0 40 40" fill="none" xmlns="http://www.w3.org/2000/svg">
<path fill-rule="evenodd" clip-rule="evenodd" d="M8.5 9C8.5 5.96243 10.9624 3.5 14 3.5H35V4.5H14C11.5147 4.5 9.5 6.51472 9.5 9V27H8.5V9Z" fill="#9CA3AF"/>
<path fill-rule="evenodd" clip-rule="evenodd" d="M34.5 3.5C32.2909 3.5 30.5 5.29086 30.5 7.5V19.0205C30.6649 19.0069 30.8316 19 31 19C31.1684 19 31.3351 19.0069 31.5 19.0205V13.5H38.5V7.5C38.5 5.29086 36.7091 3.5 34.5 3.5ZM31.5 7.5C31.5 5.84315 32.8431 4.5 34.5 4.5C36.1569 4.5 37.5 5.84315 37.5 7.5V12.5H31.5V7.5Z" fill="#9CA3AF"/>
<path fill-rule="evenodd" clip-rule="evenodd" d="M31.3913 30.9874C31.262 30.9958 31.1315 31 31 31C30.7854 31 30.5735 30.9887 30.3648 30.9668C29.9453 32.4296 28.5976 33.5 27 33.5C25.067 33.5 23.5 31.933 23.5 30V27H2V29C2 32.0376 4.46243 34.5 7.5 34.5H26.5V34.4725C26.6642 34.4907 26.831 34.5 27 34.5C29.1461 34.5 30.9412 32.9977 31.3913 30.9874ZM22.5 30C22.5 31.4136 23.1518 32.675 24.1713 33.5H7.5C5.01472 33.5 3 31.4853 3 29V28H22.5V30Z" fill="#9CA3AF"/>
<path fill-rule="evenodd" clip-rule="evenodd" d="M13.4 11.5C13.4 11.1686 13.6686 10.9 14 10.9H26C26.3314 10.9 26.6 11.1686 26.6 11.5C26.6 11.8314 26.3314 12.1 26 12.1H14C13.6686 12.1 13.4 11.8314 13.4 11.5Z" fill="#9CA3AF"/>
<path fill-rule="evenodd" clip-rule="evenodd" d="M13.4 16C13.4 15.6686 13.6686 15.4 14 15.4H26C26.3314 15.4 26.6 15.6686 26.6 16C26.6 16.3314 26.3314 16.6 26 16.6H14C13.6686 16.6 13.4 16.3314 13.4 16Z" fill="#9CA3AF"/>
<path fill-rule="evenodd" clip-rule="evenodd" d="M13.4 21C13.4 20.6686 13.6686 20.4 14 20.4H19C19.3314 20.4 19.6 20.6686 19.6 21C19.6 21.3314 19.3314 21.6 19 21.6H14C13.6686 21.6 13.4 21.3314 13.4 21Z" fill="#9CA3AF"/>
<path fill-rule="evenodd" clip-rule="evenodd" d="M36 25C36 27.7614 33.7614 30 31 30C28.2386 30 26 27.7614 26 25C26 22.2386 28.2386 20 31 20C33.7614 20 36 22.2386 36 25ZM31 29C33.2091 29 35 27.2091 35 25C35 22.7909 33.2091 21 31 21C28.7909 21 27 22.7909 27 25C27 27.2091 28.7909 29 31 29Z" fill="#9CA3AF"/>
<path fill-rule="evenodd" clip-rule="evenodd" d="M34.3766 27.5749C34.6373 27.253 35.1096 27.2033 35.4315 27.464L37.7629 29.352C38.0848 29.6126 38.1344 30.0849 37.8738 30.4068C37.6131 30.7287 37.1408 30.7784 36.8189 30.5177L34.4875 28.6297C34.1656 28.3691 34.1159 27.8968 34.3766 27.5749Z" fill="#9CA3AF"/>
</svg>
