<svg xmlns="http://www.w3.org/2000/svg" width="15" height="14" viewBox="0 0 15 14" fill="none">
  <path fill-rule="evenodd" clip-rule="evenodd" d="M1.19043 6.99976C1.19043 3.55462 3.98327 0.76178 7.42841 0.76178C10.8735 0.76178 13.6664 3.55462 13.6664 6.99976C13.6664 10.4449 10.8735 13.2377 7.42841 13.2377C3.98327 13.2377 1.19043 10.4449 1.19043 6.99976ZM7.42841 1.76178C4.53556 1.76178 2.19043 4.10691 2.19043 6.99976C2.19043 9.89258 4.53556 12.2377 7.42841 12.2377C10.3212 12.2377 12.6664 9.89258 12.6664 6.99976C12.6664 4.10691 10.3212 1.76178 7.42841 1.76178ZM8.12843 9.80001C8.12843 10.1866 7.81502 10.5 7.42843 10.5C7.04183 10.5 6.72843 10.1866 6.72843 9.80001C6.72843 9.41341 7.04183 9.10001 7.42843 9.10001C7.81502 9.10001 8.12843 9.41341 8.12843 9.80001ZM6.06186 5.83335C6.06186 5.19284 6.61435 4.58335 7.42853 4.58335C8.2427 4.58335 8.79519 5.19284 8.79519 5.83335C8.79519 6.29921 8.53761 6.53688 8.10226 6.80135C8.05326 6.83112 7.99698 6.86381 7.9369 6.8987L7.93685 6.89873C7.76603 6.99793 7.56458 7.11492 7.41288 7.23312C7.18802 7.40833 6.92852 7.68924 6.92853 8.12002C6.92853 8.39616 7.15238 8.62001 7.42853 8.62001C7.70457 8.62001 7.92836 8.39632 7.92853 8.12032L7.93109 8.11596C7.9403 8.10142 7.96555 8.07022 8.0275 8.02195C8.12294 7.94758 8.22955 7.8858 8.37072 7.80398C8.44392 7.76156 8.52641 7.71375 8.62146 7.65601C9.11944 7.35348 9.79519 6.85615 9.79519 5.83335C9.79519 4.60719 8.76102 3.58335 7.42853 3.58335C6.09603 3.58335 5.06186 4.60719 5.06186 5.83335C5.06186 6.10949 5.28572 6.33335 5.56186 6.33335C5.838 6.33335 6.06186 6.10949 6.06186 5.83335Z" fill="#D1D5DB"/>
</svg>