<svg width="20" height="21" viewBox="0 0 20 21" fill="none" xmlns="http://www.w3.org/2000/svg">
<path fill-rule="evenodd" clip-rule="evenodd" d="M1.05273 10.7042C1.05273 5.76284 5.0585 1.75708 9.99984 1.75708C14.9412 1.75708 18.947 5.76284 18.947 10.7042C18.947 15.6455 14.9412 19.6513 9.99984 19.6513C5.0585 19.6513 1.05273 15.6455 1.05273 10.7042ZM9.99984 3.25708C5.88692 3.25708 2.55273 6.59127 2.55273 10.7042C2.55273 14.8171 5.88693 18.1513 9.99984 18.1513C14.1127 18.1513 17.447 14.8171 17.447 10.7042C17.447 6.59127 14.1127 3.25708 9.99984 3.25708ZM10.9999 14.7046C10.9999 15.2568 10.5522 15.7046 9.99987 15.7046C9.44759 15.7046 8.99987 15.2568 8.99987 14.7046C8.99987 14.1523 9.44759 13.7046 9.99987 13.7046C10.5522 13.7046 10.9999 14.1523 10.9999 14.7046ZM8.08335 9.03789C8.08335 8.1438 8.85542 7.28789 10 7.28789C11.1446 7.28789 11.9167 8.1438 11.9167 9.03789C11.9167 9.68352 11.5636 10.0138 10.9439 10.3902C10.8752 10.432 10.7958 10.4781 10.7105 10.5276L10.7105 10.5276C10.4661 10.6696 10.1745 10.8389 9.95571 11.0094C9.63092 11.2625 9.25001 11.673 9.25001 12.3046C9.25001 12.7188 9.5858 13.0546 10 13.0546C10.4107 13.0546 10.7443 12.7245 10.7499 12.3151C10.7619 12.2973 10.7956 12.2566 10.8776 12.1926C11.0121 12.0879 11.1613 12.0014 11.3613 11.8855L11.3613 11.8855L11.3615 11.8854C11.4663 11.8247 11.585 11.7559 11.7227 11.6722C12.4364 11.2387 13.4167 10.5189 13.4167 9.03789C13.4167 7.26532 11.9221 5.78789 10 5.78789C8.07794 5.78789 6.58335 7.26532 6.58335 9.03789C6.58335 9.4521 6.91913 9.78789 7.33335 9.78789C7.74756 9.78789 8.08335 9.4521 8.08335 9.03789Z" fill="#9CA3AF"/>
</svg>
