<svg width="26" height="26" viewBox="0 0 26 26" fill="none" xmlns="http://www.w3.org/2000/svg">
<g id="Tokens">
<path d="M13 0.945999C6.34276 0.945999 0.945999 6.34276 0.945999 13C0.945999 19.6572 6.34276 25.054 13 25.054C19.6572 25.054 25.054 19.6572 25.054 13C25.054 6.34276 19.6572 0.945999 13 0.945999Z" fill="#F5AC37"/>
<path d="M13 0.945999C6.34276 0.945999 0.945999 6.34276 0.945999 13C0.945999 19.6572 6.34276 25.054 13 25.054C19.6572 25.054 25.054 19.6572 25.054 13C25.054 6.34276 19.6572 0.945999 13 0.945999Z" stroke="#191D26" stroke-width="0.108001"/>
<path id="Vector" d="M13.4046 13.6771H17.0525C17.1302 13.6771 17.167 13.6771 17.1726 13.5752C17.2024 13.2041 17.2024 12.8308 17.1726 12.4593C17.1726 12.3871 17.1367 12.3573 17.0585 12.3573H9.7987C9.70884 12.3573 9.68465 12.3871 9.68465 12.4714V13.5393C9.68465 13.6771 9.68465 13.6771 9.8285 13.6771H13.4046ZM16.7652 11.1093C16.7756 11.0821 16.7756 11.0523 16.7652 11.0255C16.7043 10.8928 16.6321 10.7663 16.5483 10.6475C16.4222 10.4444 16.2736 10.2574 16.1042 10.0893C16.0243 9.9878 15.9319 9.89664 15.8282 9.81931C15.3089 9.37737 14.6916 9.0646 14.028 8.90735C13.6932 8.83218 13.3511 8.79633 13.0081 8.79935H9.78617C9.69631 8.79935 9.68421 8.83521 9.68421 8.9134V11.0432C9.68421 11.133 9.68421 11.1572 9.79826 11.1572H16.722C16.722 11.1572 16.782 11.1451 16.7941 11.1093H16.7648H16.7652ZM16.7652 14.9252C16.6632 14.9139 16.5604 14.9139 16.4585 14.9252H9.80474C9.71489 14.9252 9.68465 14.9252 9.68465 15.0453V17.1275C9.68465 17.2234 9.68465 17.2476 9.80474 17.2476H12.8767C13.0236 17.2589 13.1705 17.2485 13.3143 17.2178C13.7602 17.1859 14.1987 17.0891 14.6168 16.9297C14.7689 16.877 14.9158 16.8083 15.0545 16.7258H15.0964C15.8165 16.3512 16.4015 15.7628 16.7704 15.0405C16.7704 15.0405 16.8123 14.9498 16.7652 14.926V14.9252ZM8.47892 18.3272V18.2914V16.8934V16.4195V15.0094C8.47892 14.9312 8.47892 14.9196 8.38302 14.9196H7.08096C7.00881 14.9196 6.979 14.9196 6.979 14.8237V13.6836H8.37092C8.44868 13.6836 8.47892 13.6836 8.47892 13.5816V12.4537C8.47892 12.3815 8.47892 12.3638 8.38302 12.3638H7.08096C7.00881 12.3638 6.979 12.3638 6.979 12.2679V11.2121C6.979 11.146 6.979 11.1283 7.07491 11.1283H8.36487C8.45473 11.1283 8.47892 11.1283 8.47892 11.0142V7.78025C8.47892 7.68435 8.47892 7.66016 8.59902 7.66016H13.0988C13.4254 7.67312 13.7498 7.70897 14.0708 7.76816C14.7322 7.89041 15.3677 8.12672 15.9487 8.46412C16.3341 8.69092 16.6887 8.96481 17.0045 9.28017C17.2421 9.52685 17.4564 9.79383 17.6465 10.0781C17.8353 10.3662 17.9921 10.6743 18.1152 10.9961C18.1303 11.0799 18.2107 11.1365 18.2945 11.1222H19.3685C19.5063 11.1222 19.5063 11.1222 19.5123 11.2544V12.2385C19.5123 12.3344 19.4765 12.3586 19.3801 12.3586H18.552C18.4682 12.3586 18.444 12.3586 18.45 12.4666C18.4828 12.8321 18.4828 13.1989 18.45 13.5644C18.45 13.6663 18.45 13.6784 18.5645 13.6784H19.5119C19.5538 13.7324 19.5119 13.7864 19.5119 13.8408C19.5179 13.9104 19.5179 13.9808 19.5119 14.0504V14.7766C19.5119 14.8785 19.4821 14.9088 19.3918 14.9088H18.2578C18.1787 14.8936 18.1018 14.9442 18.0837 15.0228C17.8137 15.7248 17.3817 16.3542 16.8235 16.8588C16.6196 17.0424 16.4053 17.2152 16.1816 17.3746C15.9414 17.5129 15.7077 17.6567 15.4614 17.7708C15.0082 17.9747 14.533 18.125 14.0453 18.2205C13.5822 18.3034 13.1126 18.341 12.6413 18.3346H8.47719V18.3285L8.47892 18.3272Z" fill="white"/>
</g>
</svg>
