<svg width="24" height="24" viewBox="0 0 24 24" fill="none" xmlns="http://www.w3.org/2000/svg">
<g id="Tokens">
<path d="M0 12C0 5.37258 5.37258 0 12 0C18.6274 0 24 5.37258 24 12C24 18.6274 18.6274 24 12 24C5.37258 24 0 18.6274 0 12Z" fill="#627EEA"/>
<path id="Vector" d="M11.9982 9.75784V3.73535L7 12.0296L11.9982 9.75784Z" fill="white"/>
<path id="Vector_2" d="M11.9982 14.9848V9.75784L7 12.0296L11.9982 14.9848ZM11.9982 9.75784L16.9974 12.0296L11.9982 3.73535V9.75784Z" fill="#C0CBF6"/>
<path id="Vector_3" d="M11.998 9.75879V14.9858L16.9972 12.0305L11.998 9.75879Z" fill="#8197EE"/>
<path id="Vector_4" d="M11.9982 15.9319L7 12.9785L11.9982 20.0225V15.9319Z" fill="white"/>
<path id="Vector_5" d="M17 12.9785L11.998 15.9319V20.0225L17 12.9785Z" fill="#C0CBF6"/>
</g>
</svg>
