<svg width="12" height="12" viewBox="0 0 12 12" fill="none" xmlns="http://www.w3.org/2000/svg">
<g id="Arrow Down">
<path id="Shape" fill-rule="evenodd" clip-rule="evenodd" d="M5.9998 1.375C6.34498 1.375 6.6248 1.65482 6.6248 2L6.6248 8.49112L8.75786 6.35806C9.00194 6.11398 9.39767 6.11398 9.64175 6.35806C9.88582 6.60214 9.88582 6.99786 9.64175 7.24194L6.44175 10.4419C6.32454 10.5592 6.16556 10.625 5.9998 10.625C5.83404 10.625 5.67507 10.5592 5.55786 10.4419L2.35786 7.24194C2.11379 6.99786 2.11379 6.60214 2.35786 6.35806C2.60194 6.11398 2.99767 6.11398 3.24175 6.35806L5.3748 8.49112L5.3748 2C5.3748 1.65482 5.65463 1.375 5.9998 1.375Z" fill="#FD4040"/>
</g>
</svg>
