<svg width="12" height="12" viewBox="0 0 12 12" fill="none" xmlns="http://www.w3.org/2000/svg">
<g id="Arrow Up">
<path id="Shape" fill-rule="evenodd" clip-rule="evenodd" d="M5.9998 1.5C6.13241 1.5 6.25959 1.55268 6.35336 1.64645L9.55336 4.84645C9.74862 5.04171 9.74862 5.35829 9.55336 5.55355C9.3581 5.74882 9.04151 5.74882 8.84625 5.55355L6.4998 3.20711L6.4998 10C6.4998 10.2761 6.27595 10.5 5.9998 10.5C5.72366 10.5 5.4998 10.2761 5.4998 10L5.4998 3.20711L3.15336 5.55355C2.9581 5.74882 2.64151 5.74882 2.44625 5.55355C2.25099 5.35829 2.25099 5.04171 2.44625 4.84645L5.64625 1.64645C5.74002 1.55268 5.8672 1.5 5.9998 1.5Z" fill="#4FEF5F"/>
</g>
</svg>
