<svg width="24" height="24" viewBox="0 0 24 24" fill="none" xmlns="http://www.w3.org/2000/svg">
<g id="Content">
<path id="Vector" d="M11.4817 4.29043L7.08715 11.516C6.91315 11.8019 7.00806 12.1725 7.29743 12.3421L11.692 14.9163C11.8818 15.0279 12.1182 15.0279 12.308 14.9163L16.7026 12.3421C16.9919 12.1725 17.0869 11.8019 16.9129 11.516L12.5192 4.29043C12.2838 3.90319 11.7171 3.90319 11.4817 4.29043Z" fill="#6B8AFF"/>
<path id="Vector_2" d="M15.7897 15.0099C15.7897 14.9987 15.7878 14.9885 15.7869 14.9783C15.785 14.9681 15.7831 14.9579 15.7813 14.9477C15.7785 14.9356 15.7748 14.9245 15.7711 14.9124C15.7683 14.9032 15.7655 14.8948 15.7608 14.8865C15.7552 14.8735 15.7478 14.8605 15.7404 14.8484C15.7366 14.8419 15.7329 14.8345 15.7283 14.828C15.7153 14.8095 15.7013 14.7909 15.6846 14.7751C15.6678 14.7594 15.6502 14.7445 15.6316 14.7315C15.625 14.7269 15.6185 14.7241 15.6111 14.7195C15.599 14.712 15.586 14.7046 15.573 14.699C15.5646 14.6953 15.5553 14.6925 15.546 14.6888C15.5348 14.6851 15.5228 14.6814 15.5107 14.6786C15.5004 14.6758 15.4902 14.674 15.48 14.6731C15.4697 14.6712 15.4595 14.6703 15.4484 14.6703C15.4363 14.6703 15.4251 14.6694 15.413 14.6703C15.4046 14.6703 15.3963 14.6721 15.387 14.6731C15.374 14.6749 15.3609 14.6758 15.3479 14.6786C15.3442 14.6786 15.3405 14.6814 15.3368 14.6823C15.2968 14.6925 15.2586 14.7083 15.2233 14.7315L12.3311 16.436C12.1265 16.5566 11.8735 16.5566 11.6689 16.436L8.77673 14.7315C8.74139 14.7083 8.70326 14.6925 8.66327 14.6823C8.65955 14.6814 8.65583 14.6796 8.65211 14.6786C8.63909 14.6758 8.62607 14.6749 8.61305 14.6731C8.60468 14.6721 8.59631 14.6712 8.58701 14.6703C8.57492 14.6703 8.56376 14.6703 8.55167 14.6703C8.54144 14.6703 8.53029 14.6721 8.52006 14.6731C8.50983 14.6749 8.4996 14.6768 8.48937 14.6786C8.47728 14.6814 8.46612 14.6851 8.45403 14.6888C8.44473 14.6916 8.43636 14.6953 8.42706 14.699C8.41404 14.7046 8.40102 14.712 8.38893 14.7195C8.38242 14.7232 8.37498 14.7269 8.36847 14.7315C8.34987 14.7445 8.33127 14.7584 8.31546 14.7751C8.29965 14.7918 8.28477 14.8095 8.27175 14.828C8.2671 14.8345 8.26431 14.841 8.25966 14.8484C8.25222 14.8614 8.24478 14.8735 8.2392 14.8865C8.23548 14.8948 8.23269 14.9041 8.22897 14.9124C8.22525 14.9245 8.22153 14.9356 8.21874 14.9477C8.21595 14.9579 8.21409 14.9681 8.21316 14.9783C8.2113 14.9885 8.21037 14.9997 8.21037 15.0099C8.21037 15.021 8.20944 15.0331 8.21037 15.0442C8.21037 15.0535 8.21223 15.0618 8.21316 15.0711C8.21502 15.0841 8.21595 15.0971 8.21874 15.1092C8.21967 15.1147 8.22153 15.1194 8.22339 15.124C8.23455 15.1667 8.25315 15.2066 8.28012 15.2437L11.4681 19.7262C11.7275 20.0908 12.2706 20.0908 12.5301 19.7262L15.718 15.2437C15.745 15.2066 15.7636 15.1667 15.7748 15.124C15.7757 15.1194 15.7785 15.1138 15.7794 15.1092C15.7822 15.0962 15.7831 15.0841 15.785 15.0711C15.7859 15.0618 15.7869 15.0535 15.7878 15.0442C15.7878 15.0331 15.7878 15.021 15.7878 15.0099H15.7897Z" fill="#6B8AFF"/>
</g>
</svg>
