<svg width="83" height="19" viewBox="0 0 83 19" fill="none" xmlns="http://www.w3.org/2000/svg">
<g id="Content" clip-path="url(#clip0_1552_36062)">
<path id="Vector" d="M75.962 6.11724C76.3345 6.18738 76.615 6.29805 76.8148 6.44645L76.8173 6.44916L76.8226 6.45182C77.0199 6.58407 77.1602 6.77296 77.241 7.0212L77.2439 7.0239V7.02932C77.3382 7.28027 77.3895 7.61756 77.3895 8.04932C77.3895 8.39198 77.33 8.66992 77.2221 8.89659V8.8993C77.1278 9.10705 76.9629 9.28515 76.7123 9.4336C76.4559 9.582 76.1023 9.70342 75.638 9.78439C75.1659 9.85182 74.5777 9.8923 73.8681 9.8923H73.5982V10.8556L73.841 10.8799C73.9731 10.8961 74.1027 10.9069 74.2376 10.915C74.3726 10.9231 74.5075 10.9258 74.6396 10.9258C75.3681 10.9258 76.1048 10.8205 76.8415 10.6155L77.0548 11.9539C76.1938 12.1643 75.3468 12.2696 74.5129 12.2696C73.35 12.2696 72.5674 11.9998 72.1059 11.5195C71.6391 11.0256 71.3774 10.2485 71.3774 9.13675C71.3774 8.02233 71.6363 7.25057 72.1059 6.76754V6.76487C72.5756 6.27643 73.3553 6.00391 74.5129 6.00391C75.1011 6.00391 75.5814 6.04439 75.962 6.11724ZM75.549 8.12754V7.33421H74.7557C74.4345 7.33421 74.1568 7.36661 73.9595 7.45566H73.9571C73.6765 7.58516 73.5982 7.8793 73.5982 8.14916V8.94515H74.3915C74.7073 8.94515 74.9879 8.9155 75.1794 8.82374C75.4628 8.69421 75.549 8.40819 75.549 8.12754Z" fill="white"/>
<path id="Vector_2" d="M70.7294 6.06055L70.8455 7.91703C70.8024 7.92515 70.7593 7.93323 70.7134 7.94131C70.5649 7.97372 70.4111 8.00879 70.2548 8.05464H70.2519H70.2491C70.0928 8.10325 69.9472 8.1626 69.8093 8.23545C69.6637 8.30293 69.5394 8.39198 69.4451 8.50531L69.3832 8.58087V12.0807H67.354V6.19275H68.2552L69.0673 7.01578L69.2589 6.84038C69.6609 6.46802 70.1523 6.20624 70.7294 6.06055Z" fill="white"/>
<path id="Vector_3" d="M66.0665 6.19238V12.0749H65.1629L64.2802 11.2195L64.0943 11.4434C63.6436 11.9831 62.993 12.2665 62.1082 12.2665C61.374 12.2665 60.899 12.1099 60.6213 11.8563C60.3514 11.6 60.1841 11.1466 60.1841 10.4154V6.19238H62.2133V10.9335H62.8798C63.1956 10.9335 63.4762 10.9038 63.6678 10.812C63.9512 10.6825 64.0373 10.3965 64.0373 10.1159V6.19238H66.0665Z" fill="white"/>
<path id="Vector_4" d="M63.3695 12.3076C63.3645 12.3123 63.3695 12.3123 63.3695 12.3076C63.3645 12.3076 63.3645 12.3123 63.3695 12.3076Z" fill="white"/>
<path id="Vector_5" d="M59.0629 10.8364C59.1117 10.8417 59.1601 10.8471 59.2114 10.8525L59.1249 12.2152C58.6581 12.2098 58.2672 12.1936 57.9513 12.1667C57.5735 12.137 57.3225 12.0911 57.1794 12.0398C56.9041 11.94 56.7179 11.8239 56.5994 11.7025C56.505 11.6 56.4373 11.4246 56.4373 11.1359V7.31224H55.7954V6.1924H56.4373V5.10493L58.4665 4.59766V6.1924H59.3546V7.31224H58.4665V10.7257L58.6827 10.7689C58.793 10.7905 58.912 10.8121 59.0469 10.8364H59.0547H59.0629Z" fill="white"/>
<path id="Vector_6" d="M54.9653 7.94131C54.8173 7.97372 54.6635 8.00879 54.5039 8.05464H54.5014C54.3447 8.10325 54.1991 8.1626 54.0617 8.23545C53.9186 8.30293 53.7918 8.39198 53.6971 8.50531L53.6351 8.58087V12.0807H51.606V6.19275H52.5071L53.3193 7.01578L53.5113 6.84038C53.9132 6.46802 54.4042 6.20624 54.9818 6.06055L55.0978 7.91703C55.0548 7.92515 55.0113 7.93323 54.9653 7.94131Z" fill="white"/>
<path id="Vector_7" d="M49.2191 6.11724C49.594 6.18738 49.875 6.29805 50.0743 6.44645L50.0772 6.44916L50.0825 6.45182C50.2794 6.58407 50.4197 6.77296 50.5009 7.0212L50.5034 7.0239V7.02932C50.5981 7.28027 50.6494 7.61756 50.6494 8.04932C50.6494 8.39198 50.5899 8.66992 50.482 8.89659V8.8993C50.3873 9.10705 50.2228 9.28515 49.9718 9.4336C49.713 9.582 49.3594 9.70342 48.8979 9.78439C48.4258 9.85182 47.8401 9.8923 47.128 9.8923H46.8581V10.8556L47.1009 10.8799C47.233 10.8961 47.3626 10.9069 47.4976 10.915C47.6325 10.9231 47.7675 10.9258 47.8995 10.9258C48.6309 10.9258 49.3647 10.8205 50.1014 10.6155L50.3147 11.9539C49.4537 12.1643 48.6067 12.2696 47.7728 12.2696C46.6097 12.2696 45.8272 11.9998 45.3658 11.5195C44.8989 11.0256 44.6372 10.2485 44.6372 9.13675C44.6372 8.02233 44.8962 7.25057 45.3658 6.76754V6.76487C45.8353 6.27643 46.6151 6.00391 47.7728 6.00391C48.361 6.00391 48.8413 6.04439 49.2191 6.11724ZM48.8089 8.12754V7.33421H48.0156C47.6945 7.33421 47.4164 7.36661 47.2195 7.45566L47.2141 7.45833C46.9418 7.58516 46.8581 7.87659 46.8581 8.14916V8.94515H47.6514C47.9672 8.94515 48.2478 8.9155 48.4393 8.82374C48.7228 8.69421 48.8089 8.40819 48.8089 8.12754Z" fill="white"/>
<path id="Vector_8" d="M43.728 7.90602C43.8224 8.2973 43.871 8.70744 43.871 9.13649C43.871 9.55204 43.8305 9.94331 43.7468 10.3076C43.6686 10.6638 43.5364 10.9741 43.3583 11.244C43.1856 11.4976 42.9562 11.7 42.6648 11.8511C42.3842 11.9968 42.0226 12.0778 41.5692 12.0778H39.8234V14.0233L37.7915 14.1744V6.19253H38.6685L39.2864 7.03176L39.5023 6.71605C39.8072 6.26809 40.3955 6.00098 41.3777 6.00098C41.858 6.00098 42.2439 6.08732 42.5461 6.24651C42.8618 6.41382 43.1073 6.63237 43.2935 6.91031L43.2962 6.91302L43.2989 6.91572C43.4959 7.19095 43.6389 7.51746 43.7253 7.90065L43.728 7.90602ZM41.6448 10.116V7.33128H40.9783C40.784 7.33128 40.6248 7.33936 40.4953 7.35556C40.3226 7.37443 40.1742 7.44998 40.05 7.56065C39.8936 7.69285 39.8288 7.87903 39.8207 8.07334V8.07871V10.9337H40.4872C40.8029 10.9337 41.0835 10.904 41.2751 10.8122C41.5584 10.6827 41.6448 10.3966 41.6448 10.116Z" fill="white"/>
<path id="Vector_9" d="M35.3147 4.58691L37.2522 12.075H35.1043L34.8048 10.8013H32.2574L31.966 12.075H29.8208L31.7583 4.58691H35.3147ZM34.4593 9.29563L33.8252 6.50816H33.2559L32.6055 9.29563H34.4593Z" fill="white"/>
<path id="Vector_10" d="M7.40363 13.0397C7.40363 13.0397 7.43061 13.1395 7.48458 13.323C7.54125 13.5065 7.63029 13.771 7.77601 14.0975C8.06204 14.7424 8.59902 15.6329 9.53806 16.3992C10.4636 17.1683 11.7966 17.7619 13.2915 17.913C14.0471 17.994 14.8134 17.9697 15.596 17.8483C16.3677 17.7295 17.1556 17.5001 17.8842 17.2006C18.6209 16.8957 19.3225 16.5098 19.9593 16.0646C20.6096 15.6113 21.1736 15.1201 21.6836 14.5832C22.1936 14.0435 22.6091 13.4984 22.9707 12.9237C23.3215 12.3624 23.5941 11.8011 23.7964 11.2695C23.9961 10.746 24.1364 10.2226 24.212 9.79352C24.2929 9.34827 24.3253 8.9597 24.3334 8.64128C24.3469 8.00447 24.2876 7.65098 24.2876 7.65098L26.5191 7.47559C26.5191 7.47559 26.5623 7.95591 26.4867 8.7816C26.4463 9.19179 26.3707 9.68827 26.2277 10.2361C26.082 10.8 25.8796 11.3802 25.5882 12.0143C25.2994 12.6403 24.9244 13.2825 24.4656 13.914C24.015 14.5346 23.4564 15.166 22.8412 15.73C22.2259 16.2967 21.5082 16.8336 20.7634 17.2762C20.0052 17.7295 19.1903 18.1073 18.3402 18.3906C17.4821 18.674 16.616 18.8601 15.7363 18.9357C14.8647 19.0112 13.9769 18.9762 13.162 18.8305C11.5079 18.5444 10.0778 17.7808 9.12251 16.866C8.15648 15.954 7.65188 14.9555 7.39553 14.2513C7.26601 13.8978 7.19045 13.609 7.14458 13.4148C7.1041 13.2205 7.08252 13.1153 7.08252 13.1153L7.40363 13.0397Z" fill="white"/>
<path id="Vector_11" d="M22.3493 9.02457C22.3493 9.02457 22.3898 8.72776 22.3601 8.23394C22.3304 7.74013 22.2063 7.01968 21.788 6.29379C21.5695 5.9268 21.3131 5.5895 20.9327 5.27112C20.5792 4.96619 20.142 4.70446 19.6644 4.50744C19.1868 4.31048 18.6606 4.18365 18.1182 4.127C17.8484 4.10268 17.5731 4.0865 17.2979 4.0946C17.163 4.0946 17.0308 4.10809 16.8742 4.11617C16.7366 4.13237 16.6125 4.14046 16.4749 4.16478C15.382 4.31856 14.3431 4.75031 13.5094 5.31698C13.0857 5.60571 12.7322 5.91063 12.4219 6.25063C12.1224 6.57714 11.8714 6.92793 11.6771 7.25985C11.2886 7.92902 11.1104 8.54425 11.0349 8.97063C10.9593 9.39964 10.9593 9.64522 10.9593 9.64522L8.98682 9.45903C8.98682 9.45903 9.0219 9.11362 9.1811 8.53346C9.34031 7.95871 9.65602 7.15459 10.2416 6.33698C10.533 5.9268 10.8838 5.51936 11.3128 5.1335C11.7284 4.75573 12.2276 4.39411 12.7565 4.10538C13.8224 3.51444 15.0852 3.12318 16.3669 3.05841C16.5235 3.04762 16.6988 3.04762 16.858 3.04492C16.9984 3.05032 17.163 3.05032 17.3249 3.06381C17.6433 3.08 17.959 3.12857 18.2666 3.18524C18.8845 3.30667 19.4782 3.50905 20.0098 3.78429C20.5414 4.06222 21.0109 4.40223 21.3968 4.80159C21.7718 5.17395 22.0714 5.63807 22.2657 6.05362C22.6623 6.91443 22.719 7.70235 22.7028 8.23124C22.6947 8.49568 22.6704 8.70885 22.6488 8.84918C22.6272 8.98679 22.6165 9.05968 22.6165 9.05968L22.3493 9.02457Z" fill="white"/>
<path id="Vector_12" d="M24.6668 6.01831C24.6668 6.01831 24.6345 5.92388 24.5751 5.74308C24.513 5.56768 24.4132 5.30865 24.254 4.99831C23.9436 4.38041 23.3797 3.525 22.4569 2.77215C21.5421 2.02199 20.263 1.38517 18.8086 1.18279C18.0719 1.07485 17.3299 1.06945 16.5662 1.17199C15.808 1.27453 15.0578 1.47961 14.3427 1.77913C12.9099 2.37008 11.6471 3.31992 10.681 4.375C9.70959 5.43277 9.0188 6.59576 8.61134 7.62659C8.5061 7.88833 8.42515 8.12849 8.3469 8.38481C8.27674 8.61689 8.22007 8.84626 8.1742 9.0621C8.08245 9.49386 8.03928 9.86893 8.02309 10.1766C7.99071 10.7918 8.03928 11.1318 8.03928 11.1318L5.61072 11.2397C5.61072 11.2397 5.58373 10.7567 5.69707 9.94182C5.75373 9.53705 5.85088 9.04865 6.01008 8.51164C6.09103 8.24449 6.18548 7.96388 6.30421 7.66703C6.41215 7.39451 6.54706 7.08421 6.69547 6.78465C7.29452 5.56768 8.20928 4.28595 9.42896 3.15262C10.6432 2.02199 12.1759 1.05596 13.8651 0.508186C14.7071 0.232949 15.5894 0.0602512 16.4583 0.0143782C17.3218 -0.034193 18.2042 0.0413623 18.9975 0.224854C20.6165 0.583742 21.9684 1.40136 22.8967 2.29453C23.833 3.19579 24.3538 4.14833 24.6345 4.83104C24.7748 5.1737 24.8557 5.45164 24.9097 5.64324C24.9556 5.83483 24.9825 5.93467 24.9825 5.93467L24.6668 6.01831Z" fill="white"/>
<path id="Vector_13" d="M19.1082 11.0377C19.1082 11.0377 19.1811 10.8784 19.3052 10.6005C19.3376 10.5304 19.3727 10.4548 19.4078 10.3712C19.4347 10.2902 19.4644 10.2012 19.4968 10.1094C19.5562 9.91243 19.6075 9.68847 19.6398 9.44293C19.7046 8.95182 19.6749 8.36354 19.4402 7.82386C19.2135 7.2869 18.7602 6.82815 18.2043 6.60148C17.6484 6.36674 17.017 6.34516 16.4665 6.46657C15.8998 6.58799 15.4357 6.83627 15.0661 7.10609C14.7044 7.37324 14.4535 7.65655 14.2943 7.86164C14.1351 8.06944 14.0596 8.19627 14.0596 8.19627L12.8911 7.36516C12.8911 7.36516 13.0126 7.20326 13.2554 6.95227C13.501 6.70132 13.8707 6.36674 14.3914 6.06451C14.8987 5.77037 15.576 5.50593 16.31 5.43579C17.0494 5.36023 17.8724 5.47627 18.574 5.87021C19.281 6.25611 19.799 6.93069 20.0041 7.62148C20.2173 8.31768 20.166 8.9896 20.0392 9.51578C19.9744 9.78289 19.8935 10.0177 19.8071 10.2201C19.7559 10.3334 19.7289 10.3982 19.6722 10.5061C19.6263 10.5843 19.5832 10.6572 19.5427 10.7247C19.3889 10.9864 19.2998 11.1375 19.2998 11.1375L19.1082 11.0377Z" fill="white"/>
<path id="Vector_14" d="M13.0831 8.66505C13.0831 8.66505 13.021 8.81887 12.9158 9.08602C12.8888 9.15345 12.8591 9.22634 12.8267 9.30727L12.8024 9.36933C12.8132 9.34776 12.7943 9.40174 12.7916 9.41252C12.7809 9.45568 12.7701 9.49887 12.7593 9.54473C12.7161 9.72824 12.6837 9.936 12.6756 10.1627C12.6567 10.6133 12.7458 11.1422 13.0264 11.5955C13.1694 11.8276 13.3448 12.0192 13.5661 12.1892C13.7846 12.3538 14.0356 12.4806 14.3 12.5589C14.8343 12.7235 15.4226 12.7073 15.9434 12.5804C16.4749 12.4509 16.9175 12.2242 17.2791 11.9841C17.6353 11.7412 17.8889 11.4957 18.0535 11.3122C18.2181 11.1287 18.2991 11.0154 18.2991 11.0154L19.5026 12.0327C19.5026 12.0327 19.373 12.1757 19.1221 12.397C18.8711 12.6155 18.4907 12.9096 17.9888 13.1714C17.4949 13.4305 16.85 13.6679 16.1511 13.7543C15.4469 13.8433 14.6589 13.7812 13.9465 13.4709C13.5903 13.3171 13.2612 13.1012 12.9886 12.8395C12.7161 12.5804 12.4921 12.262 12.3464 11.9463C12.0442 11.3014 12.0199 10.6322 12.1009 10.1087C12.1413 9.84428 12.2061 9.60949 12.279 9.40711C12.2978 9.35584 12.3167 9.30727 12.3329 9.26141L12.368 9.17507L12.4004 9.11568C12.4409 9.04012 12.4786 8.96727 12.5137 8.90521C12.6486 8.65156 12.7269 8.50586 12.7269 8.50586L13.0831 8.66505Z" fill="white"/>
<path id="Vector_15" d="M10.1489 10.8832C10.1489 10.8832 10.1517 10.9534 10.1544 11.0856C10.1597 11.2125 10.1705 11.3959 10.2083 11.6307C10.2785 12.0948 10.4539 12.764 10.8991 13.4251C11.1123 13.7463 11.4226 14.0889 11.7653 14.3561C12.1188 14.6367 12.5397 14.8715 13.0038 15.0388C13.468 15.2034 13.9726 15.3059 14.4907 15.3329C15.0007 15.3653 15.543 15.314 16.0531 15.2115C17.0865 14.9983 18.0579 14.5369 18.8432 13.9567C19.0429 13.8137 19.2264 13.6599 19.4044 13.5061L19.6689 13.2632L19.8956 13.0312C20.1978 12.7074 20.4541 12.3781 20.6619 12.0571C21.0775 11.4175 21.3095 10.8347 21.4283 10.4218C21.5497 10.009 21.5794 9.77148 21.5794 9.77148L23.2497 10.1169C23.2497 10.1169 23.1822 10.4299 22.9852 10.948C22.7909 11.4634 22.4402 12.1704 21.8735 12.9043C21.5902 13.2713 21.2556 13.641 20.867 13.9945C20.7644 14.0836 20.6619 14.1753 20.5567 14.2643C20.4541 14.3453 20.3516 14.4262 20.2463 14.5099C20.0251 14.6745 19.7957 14.8364 19.5529 14.9848C18.5868 15.5865 17.4265 16.0291 16.2203 16.1856C15.6132 16.2585 15.0115 16.2693 14.4124 16.1883C13.8188 16.1127 13.244 15.9508 12.7259 15.7161C12.2078 15.4813 11.7437 15.1737 11.3659 14.8202C10.972 14.4586 10.6913 14.0863 10.4674 13.6923C10.0248 12.9125 9.89799 12.1731 9.86292 11.6739C9.84401 11.4229 9.84672 11.2205 9.85214 11.0856C9.86022 10.9534 9.86292 10.8859 9.86292 10.8859L10.1489 10.8832Z" fill="white"/>
<path id="Vector_16" d="M15.4692 8.55164C15.4692 8.55164 15.248 8.72433 15.0482 9.06974C14.8486 9.40162 14.7407 9.95749 14.9916 10.3056C15.0995 10.4594 15.2749 10.5754 15.4557 10.6159C15.4989 10.6267 15.5529 10.6348 15.588 10.6375C15.6689 10.6483 15.6743 10.6429 15.7282 10.6429C15.8173 10.6402 15.901 10.6267 15.9792 10.6078C16.2895 10.5296 16.4622 10.3865 16.4622 10.3865L16.9749 11.3499C16.9749 11.3499 16.8913 11.3903 16.7402 11.4416C16.5891 11.4929 16.3678 11.5549 16.0899 11.5684C15.9522 11.5739 15.8011 11.5711 15.6419 11.5442C15.5718 11.5334 15.453 11.5064 15.4072 11.4902C15.3154 11.4632 15.2425 11.4362 15.1562 11.3958C14.8324 11.2474 14.5302 10.9721 14.3764 10.6078C14.228 10.2651 14.236 9.87657 14.3224 9.57434C14.4087 9.264 14.5626 9.01847 14.7137 8.83499C14.8648 8.64877 15.0159 8.52465 15.1238 8.44101C15.2345 8.35734 15.2992 8.32227 15.2992 8.32227L15.4692 8.55164Z" fill="white"/>
<path id="Vector_17" d="M17.0528 10.5196C17.0528 10.5196 17.2714 10.3469 17.4468 10.0042C17.5331 9.83421 17.6006 9.62104 17.6033 9.40516C17.6114 9.18662 17.5493 8.96803 17.4279 8.80342C17.3092 8.63882 17.1364 8.53361 16.9583 8.48771C16.8747 8.46613 16.7721 8.45264 16.6939 8.45264C16.6075 8.45264 16.5266 8.46343 16.4511 8.47692C16.1488 8.54169 15.9815 8.67122 15.9815 8.67122L15.4985 7.65931C15.4985 7.65931 15.5822 7.62424 15.736 7.58375C15.8898 7.54327 16.1138 7.49741 16.389 7.50011C16.5266 7.50278 16.675 7.51628 16.8288 7.55139C16.9907 7.58916 17.1364 7.63773 17.2983 7.72137C17.6087 7.87789 17.8893 8.15583 18.0323 8.48771C18.178 8.81692 18.1888 9.1785 18.1159 9.47534C18.0458 9.77757 17.9028 10.0204 17.7598 10.2012C17.6168 10.382 17.4684 10.5061 17.3631 10.5844C17.2552 10.6626 17.1931 10.6977 17.1931 10.6977L17.0528 10.5196Z" fill="white"/>
</g>
<defs>
<clipPath id="clip0_1552_36062">
<rect width="82.0875" height="18.975" fill="white" transform="translate(0.456299)"/>
</clipPath>
</defs>
</svg>
