<svg width="12" height="12" viewBox="0 0 12 12" fill="none" xmlns="http://www.w3.org/2000/svg">
<g id="Info Circled">
<path id="Shape" fill-rule="evenodd" clip-rule="evenodd" d="M5.99981 0.582031C3.00739 0.582031 0.581543 3.00787 0.581543 6.0003C0.581543 8.9927 3.00739 11.4186 5.99981 11.4186C8.99221 11.4186 11.4181 8.9927 11.4181 6.0003C11.4181 3.00787 8.99221 0.582031 5.99981 0.582031ZM1.58154 6.0003C1.58154 3.56016 3.55967 1.58203 5.99981 1.58203C8.43993 1.58203 10.4181 3.56016 10.4181 6.0003C10.4181 8.44041 8.43993 10.4186 5.99981 10.4186C3.55967 10.4186 1.58154 8.44041 1.58154 6.0003ZM6.59982 3.60051C6.59982 3.93188 6.33119 4.20051 5.99982 4.20051C5.66845 4.20051 5.39982 3.93188 5.39982 3.60051C5.39982 3.26914 5.66845 3.00051 5.99982 3.00051C6.33119 3.00051 6.59982 3.26914 6.59982 3.60051ZM4.69991 4.70051H5.19991H5.99991C6.27605 4.70051 6.49991 4.92436 6.49991 5.20051V7.90051H6.79991H7.29991V8.90051H6.79991H5.99991H5.19991H4.69991V7.90051H5.19991H5.49991V5.70051H5.19991H4.69991V4.70051Z" fill="#D1D5DB"/>
</g>
</svg>
