<svg viewBox="0 0 134 38" fill="none" xmlns="http://www.w3.org/2000/svg">
<path d="M16.8913 13.1741L6.70693 1.38558C6.46852 1.10962 6.78808 0.741804 7.11768 0.912791L30.7116 12.7013C31.022 12.8623 30.9243 13.2973 30.5774 13.299L17.1679 13.299C17.0621 13.2996 16.9597 13.2533 16.8913 13.1741Z" fill="#59F6FD"/>
<path d="M31.3025 15.4607L17.4477 36.7242C17.2534 37.0235 16.7507 36.8198 16.824 36.4716L20.1317 20.7491C20.1504 20.6602 20.2091 20.585 20.2929 20.5425L30.84 15.0014C31.142 14.8484 31.4813 15.1853 31.3025 15.4607Z" fill="#59F6FD"/>
<path d="M16.9886 13.9096L30.5917 13.8214C30.9432 13.8191 31.0873 14.262 30.7868 14.4212L20.1386 20.0658C20.0994 20.0866 20.0557 20.0994 20.0102 20.1035L5.52686 21.4112C5.1713 21.4433 4.99107 20.9975 5.28811 20.8207L16.8167 13.9566C16.8676 13.9263 16.9271 13.91 16.9886 13.9096Z" fill="#FF8E5E"/>
<path d="M114.945 28.6975L122.774 17.9135V19.8117L115.158 9.30273H120.014L125.11 16.703H123.783L128.905 9.30273H133.761L126.118 19.8117V17.9135L134 28.6975H129.117L123.783 21.0221H125.136L119.775 28.6975H114.945Z" fill="white"/>
<path d="M99.5234 28.6975V9.30273H112.527V12.6315H103.478V17.1707H111.891V20.5269H103.478V25.3688H112.527V28.6975H99.5234Z" fill="white"/>
<path d="M79.3613 28.6975V9.30273H82.4398L92.6042 22.7003H91.8877V9.30273H95.7358V28.6975H92.6573L82.5195 15.3H83.2095V28.6975H79.3613Z" fill="white"/>
<path d="M57.707 18.9862C57.707 16.9688 58.0697 15.2173 58.7951 13.7318C59.5382 12.2279 60.5998 11.0633 61.9798 10.238C63.3598 9.41266 64.9964 9 66.8895 9C68.7826 9 70.4192 9.41266 71.7992 10.238C73.1792 11.0633 74.2408 12.2279 74.9838 13.7318C75.7446 15.2173 76.125 16.9597 76.125 18.9587C76.125 20.9945 75.7446 22.7643 74.9838 24.2682C74.2408 25.7538 73.1792 26.9184 71.7992 27.762C70.4192 28.5873 68.7826 29 66.8895 29C64.9964 29 63.3598 28.5873 61.9798 27.762C60.6175 26.9184 59.5648 25.7446 58.8217 24.2407C58.0786 22.7368 57.707 20.9853 57.707 18.9862ZM62.0329 18.9862C62.0329 20.9853 62.431 22.5534 63.2271 23.6905C64.041 24.8093 65.2618 25.3686 66.8895 25.3686C68.4818 25.3686 69.6938 24.8093 70.5253 23.6905C71.3569 22.5534 71.7726 20.9853 71.7726 18.9862C71.7726 16.9688 71.3569 15.4099 70.5253 14.3095C69.7115 13.1907 68.4995 12.6314 66.8895 12.6314C65.2618 12.6314 64.041 13.1907 63.2271 14.3095C62.431 15.4099 62.0329 16.9688 62.0329 18.9862Z" fill="white"/>
<path d="M47.5636 29C46.0597 29 44.6532 28.8074 43.3439 28.4223C42.0346 28.0371 40.92 27.5053 40 26.8267L41.2208 23.4704C41.8223 23.8923 42.4593 24.2499 43.1316 24.5433C43.8039 24.8368 44.5116 25.066 45.2547 25.2311C45.9978 25.3778 46.7763 25.4512 47.5901 25.4512C48.864 25.4512 49.7663 25.2494 50.2971 24.8459C50.8456 24.4425 51.1198 23.9289 51.1198 23.3054C51.1198 22.7368 50.934 22.3058 50.5625 22.0124C50.2086 21.7006 49.554 21.4347 48.5986 21.2146L45.467 20.5543C43.7508 20.1875 42.4681 19.564 41.6189 18.6836C40.7696 17.8033 40.345 16.6295 40.345 15.1623C40.345 13.9152 40.6635 12.8331 41.3004 11.9161C41.9373 10.9991 42.8308 10.2838 43.9808 9.77029C45.1485 9.25676 46.5109 9 48.0678 9C49.3948 9 50.6332 9.19257 51.7833 9.57772C52.9333 9.96286 53.8798 10.5131 54.6229 11.2283L53.4021 14.3645C52.6767 13.7593 51.8629 13.3099 50.9606 13.0165C50.0759 12.7047 49.0851 12.5488 47.9882 12.5488C46.8382 12.5488 45.9536 12.7597 45.3343 13.1816C44.7328 13.6034 44.432 14.1811 44.432 14.9147C44.432 15.4649 44.6178 15.9143 44.9893 16.2627C45.3609 16.5928 46.0155 16.8588 46.9532 17.0605L50.0317 17.6933C51.7833 18.0601 53.0837 18.6745 53.9329 19.5364C54.7822 20.3984 55.2068 21.5447 55.2068 22.9752C55.2068 24.1857 54.8883 25.2403 54.2514 26.1389C53.6321 27.0376 52.7475 27.7437 51.5975 28.2572C50.4652 28.7524 49.1205 29 47.5636 29Z" fill="white"/>
</svg>
